<?xml version="1.0" encoding="utf-8"?>
<!-- Uploaded to: SVG Repo, www.svgrepo.com, Generator: SVG Repo Mixer Tools -->
<svg width="800px" height="800px" viewBox="0 0 1024 1024" className="icon"  version="1.1" xmlns="http://www.w3.org/2000/svg"><path d="M597.333333 258.133333h21.333334v213.333334h-21.333334zM661.333333 307.2h21.333334V469.333333h-21.333334zM725.333333 337.066667h21.333334V469.333333h-21.333334zM789.333333 364.8h21.333334v106.666667h-21.333334zM853.333333 375.466667h21.333334V469.333333h-21.333334zM405.333333 258.133333h21.333334v213.333334h-21.333334zM341.333333 307.2h21.333334V469.333333h-21.333334zM277.333333 337.066667h21.333334V469.333333h-21.333334zM213.333333 364.8h21.333334v106.666667h-21.333334zM149.333333 375.466667h21.333334V469.333333H149.333333zM938.666667 490.666667H85.333333v42.666666c46.933333 0 85.333333 38.4 85.333334 85.333334v128h128v-128c0-46.933333 38.4-85.333333 85.333333-85.333334h256c46.933333 0 85.333333 38.4 85.333333 85.333334v128h128v-128c0-46.933333 38.4-85.333333 85.333334-85.333334v-42.666666z" fill="#9C1818" /><path d="M85.333333 753.066667h853.333334V896H85.333333z" fill="#81D4FA" /><path d="M896 853.333333h-42.666667c0 23.466667-19.2 42.666667-42.666666 42.666667s-42.666667-19.2-42.666667-42.666667h-42.666667c0 23.466667-19.2 42.666667-42.666666 42.666667s-42.666667-19.2-42.666667-42.666667h-42.666667c0 23.466667-19.2 42.666667-42.666666 42.666667s-42.666667-19.2-42.666667-42.666667h-42.666667c0 23.466667-19.2 42.666667-42.666666 42.666667s-42.666667-19.2-42.666667-42.666667h-42.666667c0 23.466667-19.2 42.666667-42.666666 42.666667s-42.666667-19.2-42.666667-42.666667h-42.666667c0 23.466667-19.2 42.666667-42.666666 42.666667s-42.666667-19.2-42.666667-42.666667H85.333333v72.533334c8.533333-4.266667 14.933333-10.666667 21.333334-17.066667 14.933333 19.2 38.4 29.866667 64 29.866667s49.066667-10.666667 64-29.866667c14.933333 17.066667 38.4 29.866667 64 29.866667s49.066667-10.666667 64-29.866667c14.933333 17.066667 38.4 29.866667 64 29.866667s49.066667-10.666667 64-29.866667c14.933333 17.066667 38.4 29.866667 64 29.866667s49.066667-10.666667 64-29.866667c14.933333 17.066667 38.4 29.866667 64 29.866667s49.066667-10.666667 64-29.866667c14.933333 17.066667 38.4 29.866667 64 29.866667s49.066667-10.666667 64-29.866667c14.933333 17.066667 38.4 29.866667 64 29.866667v-42.666667c-23.466667 0-42.666667-19.2-42.666667-42.666667zM896 704h-42.666667c0 23.466667-19.2 42.666667-42.666666 42.666667s-42.666667-19.2-42.666667-42.666667h-42.666667c0 23.466667-19.2 42.666667-42.666666 42.666667s-42.666667-19.2-42.666667-42.666667h-42.666667c0 23.466667-19.2 42.666667-42.666666 42.666667s-42.666667-19.2-42.666667-42.666667h-42.666667c0 23.466667-19.2 42.666667-42.666666 42.666667s-42.666667-19.2-42.666667-42.666667h-42.666667c0 23.466667-19.2 42.666667-42.666666 42.666667s-42.666667-19.2-42.666667-42.666667h-42.666667c0 23.466667-19.2 42.666667-42.666666 42.666667s-42.666667-19.2-42.666667-42.666667H85.333333v72.533333c8.533333-4.266667 14.933333-10.666667 21.333334-17.066666 14.933333 19.2 38.4 29.866667 64 29.866666s49.066667-10.666667 64-29.866666c14.933333 17.066667 38.4 29.866667 64 29.866666s49.066667-10.666667 64-29.866666c14.933333 17.066667 38.4 29.866667 64 29.866666s49.066667-10.666667 64-29.866666c14.933333 17.066667 38.4 29.866667 64 29.866666s49.066667-10.666667 64-29.866666c14.933333 17.066667 38.4 29.866667 64 29.866666s49.066667-10.666667 64-29.866666c14.933333 17.066667 38.4 29.866667 64 29.866666s49.066667-10.666667 64-29.866666c14.933333 17.066667 38.4 29.866667 64 29.866666v-42.666666c-23.466667 0-42.666667-19.2-42.666667-42.666667z" fill="#03A9F4" /><path d="M85.333333 469.333333h853.333334v64H85.333333zM554.666667 162.133333c-4.266667-19.2-21.333333-34.133333-42.666667-34.133333s-38.4 14.933333-42.666667 36.266667C456.533333 187.733333 347.733333 362.666667 85.333333 362.666667v42.666666c209.066667 0 328.533333-100.266667 384-166.4V469.333333h21.333334v-42.666666h42.666666v42.666666h21.333334V232.533333C614.4 298.666667 738.133333 405.333333 938.666667 405.333333v-42.666666c-241.066667 0-366.933333-172.8-384-200.533334zM533.333333 384h-42.666666v-42.666667h42.666666v42.666667z m0-85.333333h-42.666666v-42.666667h42.666666v42.666667z m0-85.333334h-42.666666V170.666667h42.666666v42.666666z" fill="#C62828" /></svg>