<?xml version="1.0" encoding="utf-8"?>
<!-- Uploaded to: SVG Repo, www.svgrepo.com, Generator: SVG Repo Mixer Tools -->
<svg width="800px" height="800px" viewBox="0 0 32 32" fill="none" xmlns="http://www.w3.org/2000/svg">
<g clip-path="url(#clip0_901_2934)">
<path d="M3 1.00049V12.0005H5H9L16 5.00049L23 12.0005H27H29V1.00049H3Z" fill="#FFC44D"/>
<path d="M9.00033 12.0005H4.99933V31.0005H27.0003V12.0005H22.9993L15.9993 5.00049L9.00033 12.0005Z" fill="#FFE6EA"/>
<path d="M18 27H22V23H18V27ZM18 19H22V15H18V19ZM10 19H14V15H10V19Z" fill="#668077"/>
<path d="M10 31H14V23H10V31Z" fill="#FFC44D"/>
<path d="M5 15V31M27 15V31M1 31H31M3 1V12H9L16 5L23 12H29V1H3ZM18 19H22V15H18V19ZM18 27H22V23H18V27ZM10 19H14V15H10V19ZM10 31H14V23H10V31Z" stroke="#000000" stroke-width="2" stroke-linecap="round" stroke-linejoin="round"/>
</g>
<defs>
<clipPath id="clip0_901_2934">
<rect width="32" height="32" fill="white"/>
</clipPath>
</defs>
</svg>