<?xml version="1.0" encoding="iso-8859-1"?>
<!-- Uploaded to: SVG Repo, www.svgrepo.com, Generator: SVG Repo Mixer Tools -->
<svg version="1.1" id="Capa_1" xmlns="http://www.w3.org/2000/svg" xmlns:xlink="http://www.w3.org/1999/xlink" 
	 viewBox="0 0 480 480" xml:space="preserve">
<g>
	<rect x="101.871" y="334.964" style="fill:#D6805C;" width="55.252" height="124.317"/>
	<path style="fill:#F2D057;" d="M240,224.46c0,0-82.878,35.108-82.878,96.691H240V224.46z"/>
	<path style="fill:#E9A868;" d="M322.878,321.151c0-62.158-82.877-96.691-82.877-96.691v96.691H322.878z"/>
	<path style="fill:#F2D057;" d="M198.561,459.281v-69.065c0-22.886,41.439-41.439,41.439-41.439v-13.813h-82.878v124.317H198.561z"
		/>
	<path style="fill:#E9A868;" d="M240,334.964v13.813c0,0,41.439,18.553,41.439,41.439v69.065h41.439V334.964H240z"/>
	<rect x="322.878" y="334.964" style="fill:#D6805C;" width="55.252" height="124.317"/>
	<path style="fill:#F2D057;" d="M281.439,390.216c0-22.886-41.439-41.439-41.439-41.439v41.439v6.906h27.626v62.158h13.813V390.216z
		"/>
	<path style="fill:#E9A868;" d="M240,348.777c0,0-41.439,18.553-41.439,41.439v69.065h13.813v-62.158H240v-6.906V348.777z"/>
	<rect x="322.878" y="459.281" style="fill:#695A69;" width="55.252" height="20.719"/>
	<rect x="101.871" y="459.281" style="fill:#695A69;" width="55.252" height="20.719"/>
	<rect x="267.626" y="459.281" style="fill:#695A69;" width="13.813" height="20.719"/>
	<polygon style="fill:#695A69;" points="212.374,459.281 198.561,459.281 198.561,473.094 198.561,480 212.374,480 	"/>
	<polygon style="fill:#826E77;" points="267.626,397.122 240,397.122 212.374,397.122 212.374,459.281 212.374,480 240,480 
		267.626,480 267.626,459.281 	"/>
	<polygon style="fill:#826E77;" points="198.561,459.281 157.122,459.281 157.122,480 198.561,480 198.561,473.094 	"/>
	<rect x="281.439" y="459.281" style="fill:#826E77;" width="41.439" height="20.719"/>
	<rect x="157.122" y="321.151" style="fill:#E9A868;" width="82.878" height="13.813"/>
	<rect x="60.432" y="279.712" style="fill:#F2D057;" width="20.719" height="179.568"/>
	<rect x="60.432" y="210.647" style="fill:#F2D057;" width="20.719" height="34.532"/>
	<rect x="81.151" y="210.647" style="fill:#E9A868;" width="20.719" height="34.532"/>
	<polygon style="fill:#E9A868;" points="81.151,459.281 101.871,459.281 101.871,334.964 101.871,279.712 81.151,279.712 	"/>
	<polygon style="fill:#F2D057;" points="81.151,79.424 77.698,79.424 77.698,75.971 60.432,196.835 81.151,196.835 	"/>
	<polygon style="fill:#E9A868;" points="81.151,265.899 81.151,245.18 60.432,245.18 53.525,245.18 53.525,265.899 	"/>
	<rect x="60.432" y="459.281" style="fill:#A08A8A;" width="20.719" height="20.719"/>
	<rect x="81.151" y="459.281" style="fill:#826E77;" width="20.719" height="20.719"/>
	<polygon style="fill:#D6805C;" points="101.871,279.712 108.777,265.899 108.777,245.18 101.871,245.18 81.151,245.18 
		81.151,265.899 53.525,265.899 60.432,279.712 81.151,279.712 	"/>
	<rect x="81.151" y="196.835" style="fill:#D6805C;" width="20.719" height="13.813"/>
	<rect x="60.432" y="196.835" style="fill:#E9A868;" width="20.719" height="13.813"/>
	<path style="fill:#E9A868;" d="M81.151,79.424v117.41h20.719L84.604,75.971v-48.8c5.948-1.539,10.36-6.936,10.36-13.359h-6.906
		c0,3.809-3.099,6.906-6.906,6.906c-3.807,0-6.906-3.097-6.906-6.906s3.099-6.906,6.906-6.906V0
		c-7.618,0-13.813,6.197-13.813,13.813c0,6.422,4.411,11.819,10.36,13.359v48.8v3.453H81.151z"/>
	<polygon style="fill:#F2D057;" points="398.849,459.281 398.849,279.712 378.13,279.712 378.13,334.964 378.13,459.281 	"/>
	<rect x="378.13" y="210.647" style="fill:#F2D057;" width="20.719" height="34.532"/>
	<rect x="398.849" y="279.712" style="fill:#E9A868;" width="20.719" height="179.568"/>
	<rect x="398.849" y="210.647" style="fill:#E9A868;" width="20.719" height="34.532"/>
	<polygon style="fill:#F2D057;" points="398.849,79.424 395.396,79.424 395.396,75.971 378.13,196.835 398.849,196.835 	"/>
	<polygon style="fill:#E9A868;" points="398.849,265.899 398.849,245.18 378.13,245.18 371.223,245.18 371.223,265.899 	"/>
	<rect x="378.13" y="459.281" style="fill:#A08A8A;" width="20.719" height="20.719"/>
	<rect x="398.849" y="459.281" style="fill:#826E77;" width="20.719" height="20.719"/>
	<polygon style="fill:#D6805C;" points="419.569,245.18 398.849,245.18 398.849,265.899 371.223,265.899 378.13,279.712 
		398.849,279.712 419.569,279.712 426.475,265.899 426.475,245.18 	"/>
	<rect x="398.849" y="196.835" style="fill:#D6805C;" width="20.719" height="13.813"/>
	<rect x="378.13" y="196.835" style="fill:#E9A868;" width="20.719" height="13.813"/>
	<path style="fill:#E9A868;" d="M398.849,79.424v117.41h20.719L402.302,75.971V27.171c5.948-1.539,10.36-6.936,10.36-13.359h-6.906
		c0,3.809-3.099,6.906-6.906,6.906s-6.906-3.097-6.906-6.906s3.099-6.906,6.906-6.906V0c-7.618,0-13.813,6.197-13.813,13.813
		c0,6.422,4.411,11.819,10.36,13.359v48.8v3.453H398.849z"/>
	<rect x="240" y="321.151" style="fill:#D6805C;" width="82.877" height="13.813"/>
</g>
</svg>