<?xml version="1.0" encoding="iso-8859-1"?>
<!-- Uploaded to: SVG Repo, www.svgrepo.com, Generator: SVG Repo Mixer Tools -->
<svg height="800px" width="800px" version="1.1" id="Layer_1" xmlns="http://www.w3.org/2000/svg" xmlns:xlink="http://www.w3.org/1999/xlink" 
	 viewBox="0 0 512 512" xml:space="preserve">
<g transform="translate(0 -1)">
	<polygon style="fill:#464F5D;" points="349.867,13.8 162.133,13.8 136.533,508.733 375.467,508.733 	"/>
	<g>
		<path style="fill:#FFFFFF;" d="M256,406.333c-4.71,0-8.533-3.814-8.533-8.533v-51.2c0-4.719,3.823-8.533,8.533-8.533
			c4.71,0,8.533,3.814,8.533,8.533v51.2C264.533,402.519,260.71,406.333,256,406.333"/>
		<path style="fill:#FFFFFF;" d="M256,295.4c-4.71,0-8.533-3.814-8.533-8.533v-51.2c0-4.719,3.823-8.533,8.533-8.533
			c4.71,0,8.533,3.814,8.533,8.533v51.2C264.533,291.586,260.71,295.4,256,295.4"/>
		<path style="fill:#FFFFFF;" d="M256,184.467c-4.71,0-8.533-3.814-8.533-8.533v-51.2c0-4.719,3.823-8.533,8.533-8.533
			c4.71,0,8.533,3.814,8.533,8.533v51.2C264.533,180.652,260.71,184.467,256,184.467"/>
		<path style="fill:#FFFFFF;" d="M256,73.533c-4.71,0-8.533-3.814-8.533-8.533V13.8c0-4.719,3.823-8.533,8.533-8.533
			c4.71,0,8.533,3.814,8.533,8.533V65C264.533,69.719,260.71,73.533,256,73.533"/>
	</g>
	<path style="fill:#24AE5F;" d="M19.189,103.291c-22.409,26.291-7.552,68.702,26.692,72.354c1.775,0.188,3.584,0.29,5.41,0.29
		c0.273,0,0.555,0,0.836-0.009c36.454-0.597,54.818-44.988,31.095-72.832L62.402,78.672c-5.837-6.852-16.384-6.852-22.229,0
		L19.189,103.291z"/>
	<path style="fill:#804537;" d="M51.2,227.133c-4.71,0-8.533-3.814-8.533-8.533v-76.8c0-4.719,3.823-8.533,8.533-8.533
		s8.533,3.814,8.533,8.533v76.8C59.733,223.319,55.91,227.133,51.2,227.133"/>
	<path style="fill:#24AE5F;" d="M19.189,367.824c-22.409,26.291-7.552,68.702,26.692,72.354c1.775,0.188,3.584,0.29,5.41,0.29
		c0.273,0,0.555,0,0.836-0.009c36.454-0.597,54.818-44.988,31.095-72.832l-20.821-24.422c-5.837-6.852-16.384-6.852-22.229,0
		L19.189,367.824z"/>
	<path style="fill:#804537;" d="M51.2,491.667c-4.71,0-8.533-3.814-8.533-8.533v-76.8c0-4.719,3.823-8.533,8.533-8.533
		s8.533,3.814,8.533,8.533v76.8C59.733,487.852,55.91,491.667,51.2,491.667"/>
	<path style="fill:#24AE5F;" d="M428.789,103.291c-22.409,26.291-7.552,68.702,26.692,72.354c1.775,0.188,3.584,0.29,5.41,0.29
		c0.273,0,0.555,0,0.836-0.009c36.454-0.597,54.818-44.988,31.095-72.832l-20.821-24.422c-5.837-6.852-16.384-6.852-22.229,0
		L428.789,103.291z"/>
	<path style="fill:#804537;" d="M460.8,227.133c-4.71,0-8.533-3.814-8.533-8.533v-76.8c0-4.719,3.823-8.533,8.533-8.533
		s8.533,3.814,8.533,8.533v76.8C469.333,223.319,465.51,227.133,460.8,227.133"/>
	<path style="fill:#24AE5F;" d="M428.789,367.824c-22.409,26.291-7.552,68.702,26.692,72.354c1.775,0.188,3.584,0.29,5.41,0.29
		c0.273,0,0.555,0,0.836-0.009c36.454-0.597,54.818-44.988,31.095-72.832l-20.821-24.422c-5.837-6.852-16.384-6.852-22.229,0
		L428.789,367.824z"/>
	<path style="fill:#804537;" d="M460.8,491.667c-4.71,0-8.533-3.814-8.533-8.533v-76.8c0-4.719,3.823-8.533,8.533-8.533
		s8.533,3.814,8.533,8.533v76.8C469.333,487.852,465.51,491.667,460.8,491.667"/>
	<path style="fill:#343C47;" d="M503.467,22.333H8.533C3.823,22.333,0,18.519,0,13.8s3.823-8.533,8.533-8.533h494.933
		c4.71,0,8.533,3.814,8.533,8.533S508.177,22.333,503.467,22.333"/>
	<path style="fill:#FFFFFF;" d="M256,449c-4.71,0-8.533,3.814-8.533,8.533v51.2h17.067v-51.2C264.533,452.814,260.71,449,256,449"/>
</g>
</svg>